<?xml version="1.0" encoding="utf-8"?>
<!-- Generator: Adobe Illustrator 25.1.0, SVG Export Plug-In . SVG Version: 6.00 Build 0)  -->
<svg version="1.1" id="Layer_1" xmlns="http://www.w3.org/2000/svg" xmlns:xlink="http://www.w3.org/1999/xlink" x="0px" y="0px"
	 viewBox="0 0 2000 2000" style="enable-background:new 0 0 2000 2000;" xml:space="preserve">
<style type="text/css">
	.st0{fill:#212D3D;}
</style>
<g>
	<g>
		<path class="st0" d="M534.4,1129.5H549v66.3h41.1v12.4h-55.7V1129.5z"/>
		<path class="st0" d="M605.8,1168.8c0-23.3,18-40.4,42.4-40.4c24.4,0,42.4,17.1,42.4,40.4c0,23.4-18,40.4-42.4,40.4
			C623.8,1209.3,605.8,1192.1,605.8,1168.8z M675.8,1168.8c0-16.1-11.8-27.6-27.6-27.6s-27.6,11.6-27.6,27.6
			c0,16.1,11.8,27.6,27.6,27.6S675.8,1184.9,675.8,1168.8z"/>
		<path class="st0" d="M768.7,1208.2l-16.1-23c-1,0.1-2,0.1-3,0.1h-17.8v22.9h-14.6v-78.6h32.4c20.7,0,33.5,10.6,33.5,28
			c0,11.9-6.1,20.7-16.7,24.8l18.1,25.8H768.7z M749,1141.9h-17.1v31.3H749c12.8,0,19.4-5.8,19.4-15.7
			C768.4,1147.6,761.8,1141.9,749,1141.9z"/>
		<path class="st0" d="M869.6,1195.9v12.2h-59v-78.6h57.4v12.2h-42.8v20.4h38v12h-38v21.7H869.6z"/>
		<path class="st0" d="M969.4,1208.2l-0.1-52.1l-25.8,43.1h-6.5l-25.8-42.5v51.5h-13.9v-78.6h12l31.2,52.1l30.7-52.1h12l0.1,78.6
			H969.4z"/>
		<path class="st0" d="M1057.9,1129.5h14.6v78.6h-14.6V1129.5z"/>
		<path class="st0" d="M1170.8,1157.5c0,17.3-12.8,28-33.5,28h-17.8v22.7H1105v-78.6h32.4C1158,1129.5,1170.8,1140.1,1170.8,1157.5z
			 M1156.1,1157.5c0-9.9-6.6-15.6-19.4-15.6h-17.1v31.2h17.1C1149.5,1173.1,1156.1,1167.4,1156.1,1157.5z"/>
		<path class="st0" d="M1191.1,1199.9l5.1-11.3c6.3,5.1,16.3,8.7,26,8.7c12.2,0,17.4-4.4,17.4-10.2c0-17-46.7-5.8-46.7-35.1
			c0-12.7,10.1-23.5,31.7-23.5c9.4,0,19.3,2.5,26.2,7l-4.6,11.3c-7.1-4.2-14.8-6.2-21.7-6.2c-12.1,0-17.1,4.7-17.1,10.7
			c0,16.7,46.6,5.8,46.6,34.7c0,12.6-10.2,23.4-31.8,23.4C1209.9,1209.3,1197.7,1205.5,1191.1,1199.9z"/>
		<path class="st0" d="M1279,1173.9v-44.4h14.6v43.8c0,16.2,7.3,23.1,20,23.1c12.7,0,19.9-7,19.9-23.1v-43.8h14.4v44.4
			c0,22.9-12.9,35.4-34.4,35.4C1291.9,1209.3,1279,1196.8,1279,1173.9z"/>
		<path class="st0" d="M1451.8,1208.2l-0.1-52.1l-25.8,43.1h-6.5l-25.8-42.5v51.5h-13.9v-78.6h12l31.2,52.1l30.7-52.1h12l0.1,78.6
			H1451.8z"/>
	</g>
	<g>
		<path class="st0" d="M730.4,1252.1h13.4c10.3,0,17.2,6.5,17.2,16c0,9.5-7,16-17.2,16h-13.4V1252.1z M743.6,1280
			c7.9,0,12.9-4.8,12.9-12c0-7.2-5.1-12-12.9-12H735v24H743.6z"/>
		<path class="st0" d="M776.4,1268c0-9.3,7.2-16.3,17-16.3c9.7,0,16.9,6.9,16.9,16.3c0,9.4-7.2,16.3-16.9,16.3
			C783.6,1284.3,776.4,1277.4,776.4,1268z M805.8,1268c0-7.1-5.3-12.3-12.4-12.3c-7.2,0-12.4,5.2-12.4,12.3
			c0,7.1,5.3,12.3,12.4,12.3C800.5,1280.3,805.8,1275.1,805.8,1268z"/>
		<path class="st0" d="M828.3,1252.1h4.6v27.9h17.3v4h-21.8V1252.1z"/>
		<path class="st0" d="M863.1,1268c0-9.3,7.2-16.3,17-16.3c9.7,0,16.9,6.9,16.9,16.3c0,9.4-7.2,16.3-16.9,16.3
			C870.3,1284.3,863.1,1277.4,863.1,1268z M892.5,1268c0-7.1-5.3-12.3-12.4-12.3c-7.2,0-12.4,5.2-12.4,12.3
			c0,7.1,5.3,12.3,12.4,12.3C887.2,1280.3,892.5,1275.1,892.5,1268z"/>
		<path class="st0" d="M936.3,1284l-6.9-9.8c-0.6,0-1.3,0.1-2,0.1h-7.9v9.7h-4.6v-31.9h12.4c8.3,0,13.3,4.2,13.3,11.1
			c0,4.9-2.6,8.5-7,10.1l7.6,10.7H936.3z M936.1,1263.2c0-4.6-3.1-7.2-8.9-7.2h-7.8v14.4h7.8
			C933.1,1270.4,936.1,1267.7,936.1,1263.2z"/>
		<path class="st0" d="M979.3,1280.3l1.7-3.6c2.4,2.1,6.4,3.7,10.5,3.7c5.5,0,7.9-2.1,7.9-4.9c0-7.8-19.3-2.9-19.3-14.7
			c0-4.9,3.8-9.1,12.2-9.1c3.7,0,7.6,1,10.3,2.8l-1.5,3.6c-2.8-1.8-5.9-2.6-8.8-2.6c-5.4,0-7.8,2.3-7.8,5.1
			c0,7.8,19.3,2.9,19.3,14.6c0,4.9-3.9,9.1-12.4,9.1C986.7,1284.3,981.9,1282.7,979.3,1280.3z"/>
		<path class="st0" d="M1021.5,1252.1h4.6v31.9h-4.6V1252.1z"/>
		<path class="st0" d="M1052.9,1256H1042v-4h26.4v4h-10.9v27.9h-4.5V1256z"/>
		<path class="st0" d="M1127.8,1276h-17l-3.5,8h-4.7l14.5-31.9h4.5l14.5,31.9h-4.8L1127.8,1276z M1126.2,1272.3l-6.9-15.6l-6.9,15.6
			H1126.2z"/>
		<path class="st0" d="M1181.4,1284l0-23.3l-11.5,19.4h-2.1l-11.5-19.2v23.1h-4.4v-31.9h3.7l13.3,22.4l13.1-22.4h3.7l0,31.9H1181.4z
			"/>
		<path class="st0" d="M1229.5,1280v4h-23.2v-31.9h22.5v4h-18v9.8h16v3.9h-16v10.3H1229.5z"/>
		<path class="st0" d="M1254.2,1256h-10.9v-4h26.4v4h-10.9v27.9h-4.5V1256z"/>
	</g>
	<g>
		<path class="st0" d="M995.4,856.5c-28.6-6.3-81.7-15-188.9-6.4c35.9-15.9,64.2-35,94.1-62.2c-39.9-25.5-96.6-55.6-154.7-28.1
			c-55.4,26.2-120.4,92.6-137.4,120.9c-2.1-1.2-1.3-11.3-1.1-15.7c0.4-8.5,1.2-20.1-11.9-20.1c-5.6,0-13.6,2.3-23.9,5.8
			c-10.6,3.6-16.9,3.5-21.7,12.7c-3.2,6.2-7.1,15.2-4.7,19.9c3,6.1,41.4,15.9,50.5,17.9c-8.1,5.5-91.2,38.6-103.4,95.5
			C557.5,871.8,906,844.2,995.4,856.5z"/>
		<path class="st0" d="M934.5,754.4c115.9-19.8,258-20.8,373.7-6.3c9.7,1.1,21.1,3.5,30.8,5.4l7,1.4c6.8,1.4,19.7,8.2,22,15.2
			c3.1,9.8-1.5,20.4-1.5,20.4c13.8-20,0.7-43.2-19.8-47.3c-149.3-29.5-408.1-39.9-553.4-7.3C800.7,735.2,851.5,725.6,934.5,754.4z"
			/>
		<path class="st0" d="M1028.6,763.9c-60.3,3.1-69.1,27.7-69.2,41.7l-48.6-14.7c123.5,55,177.8,75,318.9,80.8
			c75.6,3.1,132.6,2,179.2-17.4c0,0,14.1-5.9,2.4-18c-6.9-7.2-28.5-29.1-45-45.9c-11.4-11.5-20.3-20.5-20.3-20.5
			S1129.3,748.8,1028.6,763.9z"/>
		<path class="st0" d="M1507.4,934.1c0,0-2.4-28.6-8.7-39.9c-12-21.7-51.8-31-81-48.7l30.2,22.3l-6.8,10.9
			c-9.4,14.9-5.7,41.6-6,59.3h64.6c-13,41.6-155.3,43.6-172.1,45.3C1343.7,982.9,1515.9,981.5,1507.4,934.1z"/>
		<path class="st0" d="M962.3,941h134.2l-10.1-27.7c-8.5-23.3-21-32.9-60.8-42.8c-49.1-12.1-205-10.1-102,61.3
			c83,57.6,276.9,55.2,337.8,51.9C1261.5,983.9,1104.2,988.2,962.3,941z"/>
		<path class="st0" d="M1279.1,993.1h31.3c8,0,8.7-3,13.8-9.8h-59.6C1269.7,990.6,1270.7,993.1,1279.1,993.1z"/>
	</g>
</g>
</svg>
